<?xml version="1.0" encoding="UTF-8"?>
<svg width="46px" height="44px" viewBox="0 0 46 44" version="1.1" xmlns="http://www.w3.org/2000/svg" xmlns:xlink="http://www.w3.org/1999/xlink">
    <!-- Generator: Sketch 52.2 (67145) - http://www.bohemiancoding.com/sketch -->
    <title>logo</title>
    <desc>Created with Sketch.</desc>
    <g id="Page-1" stroke="none" stroke-width="1" fill="none" fill-rule="evenodd">
        <g id="Desktop-HD" transform="translate(-16.000000, -11.000000)">
            <g id="logo" transform="translate(16.000000, 11.000000)">
                <g id="Group" transform="translate(6.000000, 0.000000)" fill-rule="nonzero">
                    <circle id="Oval" fill="#0D6ECC" cx="15.5" cy="15.5" r="15.5"></circle>
                    <path d="M14,10.9623869 L16,10.9623869 L16,18.321338 L14,18.321338 L14,10.9623869 Z M14.5,9 L15.5,9 C15.7761424,9 16,9.22385763 16,9.5 L16,10.4717902 L14,10.4717902 L14,9.5 C14,9.22385763 14.2238576,9 14.5,9 Z M14,18.8119347 L16,18.8119347 L15.2338883,20.8412847 C15.1851234,20.9704576 15.0408764,21.0356413 14.9117035,20.9868764 C14.8445133,20.9615111 14.7914771,20.9084748 14.7661117,20.8412847 L14,18.8119347 Z" id="Combined-Shape" fill="#D8D8D8" transform="translate(15.000000, 15.000000) rotate(-330.000000) translate(-15.000000, -15.000000) "></path>
                    <path d="M12.9163351,18.5698827 L6.43011727,12.0836649 L5.57015816,19.4298418 L12.9163351,18.5698827 Z" id="Path" stroke="#D8D8D8" transform="translate(9.500000, 15.500000) rotate(-315.000000) translate(-9.500000, -15.500000) "></path>
                    <path d="M24.9163351,18.5698827 L18.4301173,12.0836649 L17.5701582,19.4298418 L24.9163351,18.5698827 Z" id="Path-Copy" stroke="#D8D8D8" transform="translate(21.500000, 15.500000) rotate(-135.000000) translate(-21.500000, -15.500000) "></path>
                </g>
                <path d="M22.106,41.824 C22.2180006,41.824 22.5609971,41.5953356 23.135,41.138 C23.7090029,40.6806644 24.2573307,40.2233356 24.78,39.766 L25.55,39.08 C25.5873335,39.0426665 25.606,39.0170001 25.606,39.003 C25.606,38.9889999 25.5920001,38.982 25.564,38.982 C25.2093316,38.982 24.7473362,39.184998 24.178,39.591 C23.6086638,39.997002 23.1163354,40.4263311 22.701,40.879 C22.2856646,41.3316689 22.078,41.6373325 22.078,41.796 C22.078,41.8146668 22.0873332,41.824 22.106,41.824 Z M24.528,42.034 C24.528,42.0620001 24.558333,42.076 24.619,42.076 C24.679667,42.076 24.9526642,41.9360014 25.438,41.656 C26.7073397,40.9373297 28.2006581,39.976006 29.918,38.772 C30.0020004,38.8373337 30.044,38.9166662 30.044,39.01 C30.044,39.1033338 29.9973338,39.1919996 29.904,39.276 C29.8106662,39.3600004 29.6776675,39.4813325 29.505,39.64 C29.3323325,39.7986675 29.0033358,40.0833313 28.518,40.494 C28.0326642,40.9046687 27.5800021,41.2779983 27.16,41.614 C26.0586612,42.5006711 25.2466693,43.0233325 24.724,43.182 C24.5559992,43.2286669 24.374001,43.252 24.178,43.252 C23.9913324,43.2239999 23.8210008,43.1540006 23.667,43.042 C23.5129992,42.9299994 23.436,42.7993341 23.436,42.65 C23.436,42.5006659 23.4709996,42.2790015 23.541,41.985 C23.6110004,41.6909985 23.646,41.5323334 23.646,41.509 C23.646,41.4856665 23.6390001,41.474 23.625,41.474 C23.6109999,41.474 23.5853335,41.4926665 23.548,41.53 C23.4266661,41.6606673 23.2726676,41.8216657 23.086,42.013 C22.8993324,42.2043343 22.5796689,42.4609984 22.127,42.783 C21.6743311,43.1050016 21.3080014,43.266 21.028,43.266 C20.9813331,43.2566666 20.9230003,43.2403335 20.853,43.217 C20.7829997,43.1936666 20.6920006,43.1166673 20.58,42.986 C20.4679994,42.8553327 20.412,42.6686679 20.412,42.426 C20.412,42.1833321 20.5939982,41.8123358 20.958,41.313 C21.3220018,40.8136642 21.7653307,40.3236691 22.288,39.843 C22.8106693,39.3623309 23.3846635,38.9446684 24.01,38.59 C24.6353365,38.2353316 25.181331,38.058 25.648,38.058 C25.8160008,38.058 25.9559994,38.1839987 26.068,38.436 C26.0586666,38.3706663 26.3619969,37.9483372 26.978,37.169 C27.5940031,36.3896628 28.3243291,35.6056706 29.169,34.817 C30.0136709,34.0283294 30.669331,33.634 31.136,33.634 C31.2946675,33.634 31.374,33.7086659 31.374,33.858 C31.374,34.0913345 31.2176682,34.4086647 30.905,34.81 C30.5923318,35.2113353 30.2563351,35.5846649 29.897,35.93 C29.5376649,36.2753351 29.0733362,36.7093307 28.504,37.232 C27.1879934,38.4266726 26.1963367,39.4439958 25.529,40.284 C24.8616633,41.1240042 24.528,41.7073317 24.528,42.034 Z M27.748,40.382 C28.2613359,40.0273316 28.7979972,39.6446687 29.358,39.234 C29.0593318,39.0286656 28.8680004,38.828001 28.784,38.632 C28.7559999,38.5666663 28.742,38.5200001 28.742,38.492 C28.742,38.3053324 28.8026661,38.181667 28.924,38.121 C29.0453339,38.060333 29.241332,38.03 29.512,38.03 C29.6146672,38.03 29.9179975,38.1559987 30.422,38.408 C30.9260025,38.6600013 31.245666,38.786 31.381,38.786 C31.516334,38.786 31.7053321,38.7463337 31.948,38.667 C32.1906679,38.5876663 32.3843326,38.548 32.529,38.548 C32.6736674,38.548 32.7786663,38.5806663 32.844,38.646 C33.0773345,38.9540015 33.194,39.1406663 33.194,39.206 C33.194,39.2713337 33.163667,39.3249998 33.103,39.367 C33.042333,39.4090002 32.8510016,39.5419989 32.529,39.766 C32.2069984,39.9900011 31.8920015,40.2186655 31.584,40.452 C31.2759985,40.6853345 30.986668,40.9466652 30.716,41.236 C30.445332,41.5253348 30.31,41.7586658 30.31,41.936 C30.31,41.9640001 30.3333331,41.978 30.38,41.978 C30.8840025,41.978 32.5826522,40.9560102 35.476,38.912 C35.5413337,38.912 35.574,38.9703327 35.574,39.087 C35.574,39.2036673 35.205337,39.6049966 34.468,40.291 C33.730663,40.9770034 32.8976713,41.6489967 31.969,42.307 C31.0403287,42.9650033 30.3660021,43.294 29.946,43.294 C29.2926634,43.294 28.966,42.9673366 28.966,42.314 C28.966,41.9593316 29.0849988,41.616335 29.323,41.285 C29.5610012,40.953665 30.0626628,40.5080028 30.828,39.948 C30.6693325,39.948 30.454668,39.9083337 30.184,39.829 C29.913332,39.7496663 29.740667,39.6540006 29.666,39.542 C29.4233321,39.7566677 29.0033363,40.1159975 28.406,40.62 C28.2659993,40.7226672 28.0840011,40.774 27.86,40.774 C27.6359989,40.774 27.524,40.7390003 27.524,40.669 C27.524,40.5989996 27.5986659,40.5033339 27.748,40.382 Z M35.532,42.412 L35.644,41.516 C35.644,41.4879999 35.6370001,41.474 35.623,41.474 C35.6089999,41.474 35.5833335,41.4926665 35.546,41.53 C35.4246661,41.6606673 35.2706676,41.8216657 35.084,42.013 C34.8973324,42.2043343 34.5776689,42.4609984 34.125,42.783 C33.6723311,43.1050016 33.3060014,43.266 33.026,43.266 C32.9793331,43.2566666 32.9210003,43.2403335 32.851,43.217 C32.7809996,43.1936666 32.6900006,43.1166673 32.578,42.986 C32.4659994,42.8553327 32.41,42.6686679 32.41,42.426 C32.41,42.1833321 32.5943315,41.8123358 32.963,41.313 C33.3316685,40.8136642 33.7726641,40.3236691 34.286,39.843 C34.7993359,39.3623309 35.3709968,38.9446684 36.001,38.59 C36.6310031,38.2353316 37.179331,38.058 37.646,38.058 C37.8233342,38.0673334 37.9633328,38.1933321 38.066,38.436 C38.1593338,38.3426662 38.243333,38.296 38.318,38.296 C38.392667,38.296 38.4813328,38.3519994 38.584,38.464 C38.6400003,38.4733334 38.6959997,38.5036664 38.752,38.555 C38.8080003,38.6063336 38.836,38.6786662 38.836,38.772 C38.836,38.8653338 38.7706673,38.9679994 38.64,39.08 C38.443999,39.3226679 38.2153346,39.5979985 37.954,39.906 C37.6926654,40.2140015 37.5060006,40.435666 37.394,40.571 C37.2819994,40.706334 37.1653339,40.8579992 37.044,41.026 C36.8386656,41.3153348 36.7266668,41.5486658 36.708,41.726 C37.6600048,41.2686644 39.1579898,40.2840076 41.202,38.772 C41.2860004,38.8373337 41.328,38.9166662 41.328,39.01 C41.328,39.1033338 41.290667,39.1826663 41.216,39.248 C41.141333,39.3133337 41.0503339,39.3926662 40.943,39.486 C40.8356661,39.5793338 40.6233349,39.761332 40.306,40.032 C39.9886651,40.302668 39.6830015,40.5616654 39.389,40.809 C39.0949985,41.0563346 38.7590019,41.3316651 38.381,41.635 C38.0029981,41.9383349 37.6646682,42.1973323 37.366,42.412 C36.6473297,42.9253359 36.1993342,43.182 36.022,43.182 C35.8446658,43.182 35.718667,43.1260006 35.644,43.014 C35.569333,42.9019994 35.532,42.7013348 35.532,42.412 Z M34.104,41.824 C34.2160006,41.824 34.5589971,41.5953356 35.133,41.138 C35.7070029,40.6806644 36.2506641,40.2233356 36.764,39.766 L37.548,39.08 C37.5853335,39.0426665 37.604,39.0170001 37.604,39.003 C37.604,38.9889999 37.5900001,38.982 37.562,38.982 C37.2073316,38.982 36.7453362,39.184998 36.176,39.591 C35.6066638,39.997002 35.1143354,40.4263311 34.699,40.879 C34.2836646,41.3316689 34.076,41.6373325 34.076,41.796 C34.076,41.8146668 34.0853332,41.824 34.104,41.824 Z M39.872,39.374 C40.6933374,38.9446645 41.1856658,38.6506675 41.349,38.492 C41.5123342,38.3333325 41.6686659,38.254 41.818,38.254 C42.284669,38.254 42.518,38.3099994 42.518,38.422 C42.518,38.5340006 42.2240029,38.8559973 41.636,39.388 L41.426,39.57 C41.2953327,39.7006673 41.0830015,39.9409982 40.789,40.291 C40.4949985,40.6410018 40.348,40.8673328 40.348,40.97 C40.348,40.9886668 40.3573332,40.998 40.376,40.998 C40.5253341,40.998 40.9336633,40.7366693 41.601,40.214 C42.2683367,39.6913307 42.6976657,39.325001 42.889,39.115 C43.0803343,38.9049989 43.2086663,38.8 43.274,38.8 C43.3766672,38.8 43.4513331,38.8419996 43.498,38.926 C43.7033344,38.9633335 43.806,39.0426661 43.806,39.164 C43.806,39.2200003 43.7826669,39.278333 43.736,39.339 C43.6893331,39.399667 43.4606687,39.6726642 43.05,40.158 C42.6393313,40.6433358 42.3780006,40.9746658 42.266,41.152 C42.1539994,41.3293342 42.0396673,41.5509987 41.923,41.817 C41.8063327,42.0830013 41.748,42.2579996 41.748,42.342 C41.748,42.4260004 41.7713331,42.468 41.818,42.468 C41.892667,42.468 42.0466655,42.3793342 42.28,42.202 C42.7653358,41.8193314 43.3719964,41.1660046 44.1,40.242 C44.8280036,39.3179954 45.2386662,38.6880017 45.332,38.352 C45.4346672,38.0159983 45.5256663,37.848 45.605,37.848 C45.6843337,37.848 45.7659996,37.9506656 45.85,38.156 C45.9340004,38.3613344 45.976,38.6016653 45.976,38.877 C45.976,39.1523347 45.7216692,39.6446631 45.213,40.354 C44.7043308,41.0633369 44.0860036,41.7259969 43.358,42.342 C42.6299964,42.9580031 42.0233358,43.266 41.538,43.266 C40.9873306,43.266 40.712,42.9906694 40.712,42.44 C40.712,42.1226651 40.7959992,41.8053349 40.964,41.488 C40.9733334,41.4599999 40.978,41.4343334 40.978,41.411 C40.978,41.3876665 40.9663335,41.376 40.943,41.376 C40.9196666,41.376 40.8753337,41.3946665 40.81,41.432 L39.466,42.468 C39.3819996,42.5613338 39.2630008,42.608 39.109,42.608 C38.9549992,42.608 38.8150006,42.5380007 38.689,42.398 C38.5629994,42.2579993 38.5,42.1273339 38.5,42.006 C38.5,41.5113309 39.0226614,40.7506718 40.068,39.724 C39.797332,39.724 39.662,39.6820004 39.662,39.598 C39.662,39.5419997 39.7319993,39.4673338 39.872,39.374 Z" id="draw" fill="#0D6ECC"></path>
                <path d="M4.77685547,40.6313477 L6.03808594,41.03125 C5.8447256,41.7343785 5.52319561,42.2565901 5.07348633,42.5979004 C4.62377705,42.9392107 4.05322611,43.1098633 3.36181641,43.1098633 C2.50634338,43.1098633 1.80322541,42.8176299 1.25244141,42.2331543 C0.701657402,41.6486787 0.426269531,40.8496144 0.426269531,39.8359375 C0.426269531,38.7636665 0.703122231,37.9309112 1.25683594,37.3376465 C1.81054964,36.7443818 2.53856971,36.4477539 3.44091797,36.4477539 C4.22900785,36.4477539 4.86913816,36.6806617 5.36132812,37.1464844 C5.65429834,37.4218764 5.87402271,37.8173802 6.02050781,38.3330078 L4.73291016,38.640625 C4.6567379,38.306639 4.49780394,38.0429697 4.25610352,37.8496094 C4.01440309,37.656249 3.72070485,37.5595703 3.375,37.5595703 C2.89745855,37.5595703 2.51001125,37.7309553 2.21264648,38.0737305 C1.91528172,38.4165056 1.76660156,38.9716758 1.76660156,39.7392578 C1.76660156,40.553715 1.91308447,41.1337873 2.20605469,41.4794922 C2.4990249,41.825197 2.87988047,41.9980469 3.34863281,41.9980469 C3.69433767,41.9980469 3.99169797,41.8881847 4.24072266,41.668457 C4.48974734,41.4487294 4.66845649,41.1030297 4.77685547,40.6313477 Z M6.82470703,40.9038086 L8.09033203,40.7807617 C8.16650429,41.2055685 8.32104376,41.5175771 8.55395508,41.7167969 C8.7868664,41.9160166 9.10107224,42.015625 9.49658203,42.015625 C9.91552944,42.015625 10.2312001,41.9270028 10.4436035,41.7497559 C10.6560069,41.5725089 10.762207,41.3652356 10.762207,41.1279297 C10.762207,40.9755852 10.7175297,40.8459478 10.6281738,40.7390137 C10.5388179,40.6320795 10.3828136,40.5390629 10.1601562,40.4599609 C10.0078117,40.4072263 9.66064724,40.3134772 9.11865234,40.1787109 C8.42138323,40.0058585 7.93213031,39.7934583 7.65087891,39.5415039 C7.25536912,39.1870099 7.05761719,38.7548854 7.05761719,38.2451172 C7.05761719,37.9169905 7.15063384,37.6101089 7.33666992,37.3244629 C7.52270601,37.0388169 7.79076973,36.8212898 8.14086914,36.671875 C8.49096855,36.5224602 8.91357174,36.4477539 9.40869141,36.4477539 C10.2172892,36.4477539 10.8259257,36.6249982 11.2346191,36.9794922 C11.6433126,37.3339861 11.8579101,37.8071259 11.878418,38.3989258 L10.5776367,38.4560547 C10.5219724,38.1249983 10.4025888,37.8869636 10.2194824,37.7419434 C10.036376,37.5969231 9.76172058,37.5244141 9.39550781,37.5244141 C9.01757624,37.5244141 8.72168076,37.60205 8.5078125,37.7573242 C8.3701165,37.8569341 8.30126953,37.9902335 8.30126953,38.1572266 C8.30126953,38.3095711 8.36572201,38.4399409 8.49462891,38.5483398 C8.65869223,38.6860358 9.05712574,38.8295891 9.68994141,38.9790039 C10.3227571,39.1284187 10.79077,39.2829582 11.0939941,39.442627 C11.3972183,39.6022957 11.6345206,39.8205553 11.8059082,40.0974121 C11.9772958,40.374269 12.0629883,40.7163066 12.0629883,41.1235352 C12.0629883,41.4926776 11.9604502,41.8383773 11.7553711,42.1606445 C11.5502919,42.4829118 11.2602558,42.7224113 10.8852539,42.8791504 C10.510252,43.0358895 10.0429715,43.1142578 9.48339844,43.1142578 C8.66894124,43.1142578 8.04345921,42.9260273 7.60693359,42.5495605 C7.17040797,42.1730938 6.90966839,41.6245153 6.82470703,40.9038086 Z M12.8276367,40.9038086 L14.0932617,40.7807617 C14.169434,41.2055685 14.3239734,41.5175771 14.5568848,41.7167969 C14.7897961,41.9160166 15.1040019,42.015625 15.4995117,42.015625 C15.9184591,42.015625 16.2341298,41.9270028 16.4465332,41.7497559 C16.6589366,41.5725089 16.7651367,41.3652356 16.7651367,41.1279297 C16.7651367,40.9755852 16.7204594,40.8459478 16.6311035,40.7390137 C16.5417476,40.6320795 16.3857433,40.5390629 16.1630859,40.4599609 C16.0107414,40.4072263 15.6635769,40.3134772 15.121582,40.1787109 C14.4243129,40.0058585 13.93506,39.7934583 13.6538086,39.5415039 C13.2582988,39.1870099 13.0605469,38.7548854 13.0605469,38.2451172 C13.0605469,37.9169905 13.1535635,37.6101089 13.3395996,37.3244629 C13.5256357,37.0388169 13.7936994,36.8212898 14.1437988,36.671875 C14.4938982,36.5224602 14.9165014,36.4477539 15.4116211,36.4477539 C16.2202189,36.4477539 16.8288554,36.6249982 17.2375488,36.9794922 C17.6462423,37.3339861 17.8608397,37.8071259 17.8813477,38.3989258 L16.5805664,38.4560547 C16.5249021,38.1249983 16.4055185,37.8869636 16.2224121,37.7419434 C16.0393057,37.5969231 15.7646503,37.5244141 15.3984375,37.5244141 C15.0205059,37.5244141 14.7246104,37.60205 14.5107422,37.7573242 C14.3730462,37.8569341 14.3041992,37.9902335 14.3041992,38.1572266 C14.3041992,38.3095711 14.3686517,38.4399409 14.4975586,38.5483398 C14.6616219,38.6860358 15.0600554,38.8295891 15.6928711,38.9790039 C16.3256868,39.1284187 16.7936997,39.2829582 17.0969238,39.442627 C17.400148,39.6022957 17.6374503,39.8205553 17.8088379,40.0974121 C17.9802255,40.374269 18.065918,40.7163066 18.065918,41.1235352 C18.065918,41.4926776 17.9633799,41.8383773 17.7583008,42.1606445 C17.5532216,42.4829118 17.2631855,42.7224113 16.8881836,42.8791504 C16.5131817,43.0358895 16.0459012,43.1142578 15.4863281,43.1142578 C14.6718709,43.1142578 14.0463889,42.9260273 13.6098633,42.5495605 C13.1733377,42.1730938 12.9125981,41.6245153 12.8276367,40.9038086 Z" id="CSS" fill="#0D6ECC"></path>
            </g>
        </g>
    </g>
</svg>